#!OML:ASF H:\Terrain\Patient Classification 1\Animal2\Wednesday\Animal2.ASF
:FULLY-SPECIFIED
:DEGREES
4389
root 20.1452 17.7229 -15.6326 180.523 -189.079 -179.127
lowerback -7.69493 -3.09958 2.47414
upperback -4.76288 -4.27047 5.62714
thorax -0.376716 -2.10938 4.12438
lowerneck 0.956145 2.76941 13.9912
upperneck -25.7025 4.13762 -4.53637
head -7.73297 1.05537 -4.15536
rclavicle 2.66371e-014 9.54166e-015
rhumerus 3.11764 35.3781 -51.7414
rradius 136.513
rwrist -45.7211
rhand -0.821273 32.2084
rfingers 7.12502
rthumb 24.8035 3.79699
lclavicle 2.66371e-014 9.54166e-015
lhumerus -19.1901 -33.0172 55.6856
lradius 145.638
lwrist 79.9365
lhand 12.9312 18.5098
lfingers 7.12502
lthumb 37.9009 44.3359
rfemur -6.36028 -5.32483 18.3325
rtibia 27.0015
rfoot -23.4603 2.87521
rtoes 34.0174
lfemur -5.72167 -1.44129 -20.4248
ltibia 24.4783
lfoot -18.8927 3.35778
ltoes -27.8773
4390
root 20.1465 17.7177 -15.6367 180.514 -189.008 -178.944
lowerback -7.66413 -3.111 2.22194
upperback -4.79444 -4.26725 5.57397
thorax -0.411835 -2.10397 4.213
lowerneck 1.13749 2.73014 14.0025
upperneck -25.8529 4.10418 -4.59438
head -7.81676 1.03704 -4.18465
rclavicle 1.82882e-014 -3.18055e-015
rhumerus 2.81447 35.25 -51.8732
rradius 136.099
rwrist -45.6348
rhand -0.507679 32.2332
rfingers 7.12502
rthumb 25.104 3.86352
lclavicle 1.82882e-014 -3.18055e-015
lhumerus -19.0921 -33.0491 55.7933
lradius 145.431
lwrist 80.0293
lhand 12.6353 18.4991
lfingers 7.12502
lthumb 37.6213 44.4004
rfemur -6.37006 -5.33953 18.1109
rtibia 27.0226
rfoot -23.4217 2.84617
rtoes 33.8867
lfemur -5.68726 -1.50972 -20.6552
ltibia 24.4898
lfoot -18.8907 3.53597
ltoes -27.5299
4391
root 20.1469 17.7169 -15.6415 180.418 -188.864 -179.009
lowerback -7.55971 -3.11443 2.19696
upperback -4.81249 -4.26422 5.59298
thorax -0.485159 -2.10185 4.25382
lowerneck 1.38744 2.69306 14.1467
upperneck -26.0639 4.06344 -4.80593
head -7.92651 1.01402 -4.29153
rclavicle -7.31528e-014 1.11319e-014
rhumerus 2.60744 35.1607 -51.9215
rradius 135.694
rwrist -45.6408
rhand -0.586791 32.11
rfingers 7.12502
rthumb 25.0282 3.72972
lclavicle -7.31528e-014 1.11319e-014
lhumerus -19.1311 -33.1226 55.8896
lradius 145.162
lwrist 80.0375
lhand 12.2278 18.5418
lfingers 7.12502
lthumb 37.2361 44.5448
rfemur -6.34366 -5.29325 18.1647
rtibia 27.0637
rfoot -23.4148 2.82712
rtoes 33.942
lfemur -5.59033 -1.43866 -20.5963
ltibia 24.4821
lfoot -18.8328 3.60819
ltoes -27.4892
4392
root 20.1456 17.7195 -15.6452 180.299 -188.68 -179.218
lowerback -7.47513 -3.14017 2.33279
upperback -4.82457 -4.30151 5.66049
thorax -0.547422 -2.12234 4.25113
lowerneck 1.7225 2.66123 14.0823
upperneck -26.3043 4.0656 -4.83014
head -8.06768 1.01232 -4.30577
rclavicle -1.63003e-014 -6.20208e-014
rhumerus 2.51125 35.223 -51.9681
rradius 135.275
rwrist -45.6702
rhand -1.03719 31.5248
rfingers 7.12502
rthumb 24.5966 3.08508
lclavicle -1.63003e-014 -6.20208e-014
lhumerus -19.3245 -33.105 56.0173
lradius 144.748
lwrist 80.1003
lhand 12.2685 18.6097
lfingers 7.12502
lthumb 37.2747 44.6026
rfemur -6.29842 -5.26582 18.3859
rtibia 27.0872
rfoot -23.3742 2.75661
rtoes 33.5939
lfemur -5.47928 -1.38107 -20.3725
ltibia 24.4815
lfoot -18.795 3.73776
ltoes -27.8899
4393
root 20.1469 17.7197 -15.6484 180.26 -188.513 -179.232
lowerback -7.48326 -3.1448 2.34344
upperback -4.82143 -4.30916 5.61053
thorax -0.543667 -2.12712 4.19175
lowerneck 1.84324 2.62126 14.044
upperneck -26.3287 4.05876 -4.68242
head -8.10564 0.997839 -4.2525
rclavicle -2.90226e-014 4.77083e-015
rhumerus 2.30869 35.2147 -52.1763
rradius 134.797
rwrist -45.6632
rhand -1.6043 30.9278
rfingers 7.12502
rthumb 24.0529 2.41512
lclavicle -2.90226e-014 4.77083e-015
lhumerus -19.3354 -33.0218 56.0162
lradius 144.27
lwrist 80.3183
lhand 13.0966 18.3369
lfingers 7.12502
lthumb 38.0571 44.1206
rfemur -6.29244 -5.33183 18.3696
rtibia 27.091
rfoot -23.2881 2.80813
rtoes 33.0947
lfemur -5.40905 -1.44588 -20.3995
ltibia 24.4888
lfoot -18.7465 4.19765
ltoes -29.0488
